<svg width="16" height="26" viewBox="0 0 16 26" fill="none" xmlns="http://www.w3.org/2000/svg">
<path d="M8.15031 12.6789C8.19579 13.3786 8.80863 13.9071 9.50914 13.9071H14.5616C14.851 13.9071 15.0859 14.142 15.0859 14.4314V15.7258C15.0859 16.0152 14.851 16.2501 14.5616 16.2501H11.3824C10.6802 16.2501 10.0682 16.7811 10.0236 17.4816C9.97559 18.2491 10.581 18.8842 11.3377 18.8842H14.3275C14.6716 18.8842 14.9238 19.2101 14.8361 19.5426C13.9876 22.7565 11.0607 25.1251 7.57965 25.1251C4.09862 25.1251 1.17088 22.7565 0.321505 19.5426C0.233838 19.2101 0.486087 18.8842 0.830137 18.8842H5.86436C6.56569 18.8842 7.1777 18.3558 7.22402 17.6561C7.27447 16.8886 6.66742 16.2501 5.90984 16.2501H0.598565C0.309099 16.2501 0.0742188 16.0152 0.0742188 15.7258V14.4314C0.0742188 14.142 0.309099 13.9071 0.598565 13.9071H4.00268C4.70401 13.9071 5.31685 13.3786 5.36234 12.6781C5.41279 11.9106 4.80408 11.2721 4.04817 11.2721H0.598565C0.309099 11.2721 0.0742188 11.0373 0.0742188 10.7478V9.27399C0.0742188 8.98453 0.309099 8.74965 0.598565 8.74965H5.38632C6.08848 8.74965 6.7005 8.21869 6.74516 7.51818C6.79313 6.75068 6.18773 6.11551 5.43098 6.11551H0.883068C0.534055 6.11551 0.280153 5.78056 0.377744 5.44561C0.859911 3.79979 1.89124 2.38802 3.26082 1.42369C3.4163 1.31452 3.63051 1.42783 3.63051 1.61805V2.20111C3.63051 2.90245 4.15899 3.51528 4.8595 3.56077C5.62699 3.61122 6.26547 3.00252 6.26547 2.2466V0.661982C6.26547 0.375825 6.47802 0.130193 6.76335 0.098765C7.03214 0.0698184 7.30589 0.0549316 7.58295 0.0549316C7.86001 0.0549316 8.13377 0.0698184 8.40338 0.099592C8.68788 0.13102 8.90044 0.376652 8.90044 0.661982V2.08533C8.90044 2.78666 9.42892 3.3995 10.1294 3.44499C10.8969 3.49544 11.5354 2.88673 11.5354 2.13081V1.61722C11.5354 1.42783 11.7496 1.31369 11.9043 1.42286C12.2566 1.67098 12.5866 1.94886 12.8909 2.25322C13.7684 3.13071 14.4292 4.22406 14.7873 5.44726C14.8849 5.78139 14.6302 6.11551 14.282 6.11551H11.4312C10.7299 6.11551 10.1178 6.64399 10.0715 7.34367C10.0211 8.11117 10.6281 8.74965 11.3857 8.74965H14.564C14.8535 8.74965 15.0884 8.98453 15.0884 9.27399V10.7478C15.0884 11.0373 14.8535 11.2721 14.564 11.2721H9.46613C8.70856 11.2721 8.10151 11.9106 8.15196 12.6781L8.15031 12.6789Z" fill="#F8A31F"/>
</svg>
