<svg width="110" height="43" viewBox="0 0 110 43" fill="none" xmlns="http://www.w3.org/2000/svg">
<g clip-path="url(#clip0_187_13476)">
<path d="M3.40063 42.938C5.27875 42.938 6.80127 41.4155 6.80127 39.5374C6.80127 37.6592 5.27875 36.1367 3.40063 36.1367C1.52252 36.1367 0 37.6592 0 39.5374C0 41.4155 1.52252 42.938 3.40063 42.938Z" fill="#F8A31F"/>
<path d="M11.0415 41.8231C10.4074 41.8231 9.77834 41.6512 9.22937 41.3191C8.40507 40.8202 7.81772 39.9943 7.61915 39.0532C7.24038 37.2627 8.32164 35.4706 10.082 34.9734C17.2754 32.9427 21.6989 25.6192 20.1521 18.3006C18.6053 10.9821 11.5988 6.07302 4.1985 7.12591C2.38972 7.38288 0.674385 6.18148 0.297279 4.39105C0.0987137 3.44829 0.300616 2.45546 0.852927 1.66621C1.40524 0.876955 2.27125 0.344667 3.22736 0.20951C14.2469 -1.35064 24.6807 5.96122 26.9834 16.8573C29.2861 27.7533 22.7001 38.661 11.9926 41.6912C11.6806 41.7797 11.3619 41.8231 11.0415 41.8231Z" fill="#F8A31F"/>
<path d="M37.1679 7.6543H37.1663C35.2881 7.6543 33.7656 9.17681 33.7656 11.0549V39.5382C33.7656 41.4163 35.2881 42.9388 37.1663 42.9388H37.1679C39.046 42.9388 40.5686 41.4163 40.5686 39.5382V11.0549C40.5686 9.17681 39.046 7.6543 37.1679 7.6543Z" fill="#F8A31F"/>
<path d="M37.1663 6.80322C39.0444 6.80322 40.5669 5.28071 40.5669 3.40259C40.5669 1.52447 39.0444 0.00195312 37.1663 0.00195312C35.2881 0.00195312 33.7656 1.52447 33.7656 3.40259C33.7656 5.28071 35.2881 6.80322 37.1663 6.80322Z" fill="#F8A31F"/>
<path d="M61.6533 0.201299L61.6518 0.201871C59.8874 0.845457 58.9788 2.79752 59.6223 4.56193L70.2411 33.6735C70.8847 35.4379 72.8368 36.3466 74.6012 35.703L74.6028 35.7024C76.3672 35.0588 77.2758 33.1067 76.6322 31.3423L66.0134 2.23072C65.3698 0.466316 63.4177 -0.442287 61.6533 0.201299Z" fill="#F8A31F"/>
<path d="M48.2787 42.7233L48.299 42.7307C50.0583 43.3724 52.0046 42.4665 52.6463 40.7072L65.8324 4.55717C66.4741 2.79796 65.5682 0.851644 63.809 0.209952L63.7886 0.202519C62.0294 -0.439173 60.083 0.466757 59.4414 2.22597L46.2552 38.376C45.6135 40.1353 46.5195 42.0816 48.2787 42.7233Z" fill="#F8A31F"/>
<path d="M75.9944 42.938C77.8725 42.938 79.395 41.4155 79.395 39.5374C79.395 37.6592 77.8725 36.1367 75.9944 36.1367C74.1163 36.1367 72.5938 37.6592 72.5938 39.5374C72.5938 41.4155 74.1163 42.938 75.9944 42.938Z" fill="#F8A31F"/>
<path d="M89.1445 0H89.1428C87.2647 0 85.7422 1.52252 85.7422 3.40063V39.5378C85.7422 41.4159 87.2647 42.9384 89.1428 42.9384H89.1445C91.0226 42.9384 92.5451 41.4159 92.5451 39.5378V3.40063C92.5451 1.52252 91.0226 0 89.1445 0Z" fill="#F8A31F"/>
<path d="M102.59 39.5371V39.5354C102.59 37.6573 101.067 36.1348 99.1892 36.1348H89.1442C87.266 36.1348 85.7435 37.6573 85.7435 39.5354V39.5371C85.7435 41.4152 87.266 42.9377 89.1442 42.9377H99.1892C101.067 42.9377 102.59 41.4152 102.59 39.5371Z" fill="#F8A31F"/>
<path d="M106.596 42.938C108.474 42.938 109.997 41.4155 109.997 39.5374C109.997 37.6592 108.474 36.1367 106.596 36.1367C104.718 36.1367 103.195 37.6592 103.195 39.5374C103.195 41.4155 104.718 42.938 106.596 42.938Z" fill="#F8A31F"/>
</g>
<defs>
<clipPath id="clip0_187_13476">
<rect width="110" height="42.9418" fill="white"/>
</clipPath>
</defs>
</svg>
