<svg width="63" height="25" viewBox="0 0 63 25" fill="none" xmlns="http://www.w3.org/2000/svg">
<g clip-path="url(#clip0_496_4120)">
<path d="M2.5364 24.73C3.60067 24.73 4.46343 23.8673 4.46343 22.803C4.46343 21.7387 3.60067 20.876 2.5364 20.876C1.47213 20.876 0.609375 21.7387 0.609375 22.803C0.609375 23.8673 1.47213 24.73 2.5364 24.73Z" fill="white"/>
<path d="M6.86504 24.0991C6.50573 24.0991 6.14926 24.0018 5.83818 23.8136C5.37108 23.5309 5.03824 23.0628 4.92572 22.5295C4.71108 21.515 5.3238 20.4994 6.32135 20.2177C10.3976 19.0669 12.9043 14.9169 12.0277 10.7698C11.1512 6.62259 7.18085 3.84079 2.98735 4.43743C1.96238 4.58305 0.990355 3.90225 0.776661 2.88768C0.664141 2.35344 0.778552 1.79084 1.09153 1.3436C1.4045 0.896355 1.89524 0.594725 2.43704 0.518136C8.68144 -0.365951 14.5939 3.77744 15.8988 9.95186C17.2037 16.1263 13.4716 22.3073 7.404 24.0245C7.22719 24.0746 7.04659 24.0991 6.86504 24.0991Z" fill="white"/>
<path d="M21.6702 4.73633H21.6692C20.6049 4.73633 19.7422 5.59909 19.7422 6.66335V22.8039C19.7422 23.8681 20.6049 24.7309 21.6692 24.7309H21.6702C22.7344 24.7309 23.5972 23.8681 23.5972 22.8039V6.66335C23.5972 5.59909 22.7344 4.73633 21.6702 4.73633Z" fill="white"/>
<path d="M21.6692 4.25347C22.7335 4.25347 23.5962 3.39071 23.5962 2.32644C23.5962 1.26217 22.7335 0.399414 21.6692 0.399414C20.6049 0.399414 19.7422 1.26217 19.7422 2.32644C19.7422 3.39071 20.6049 4.25347 21.6692 4.25347Z" fill="white"/>
<path d="M35.5456 0.513158L35.5447 0.513482C34.5449 0.878181 34.03 1.98435 34.3947 2.98418L40.412 19.4808C40.7767 20.4806 41.8829 20.9955 42.8827 20.6308L42.8836 20.6304C43.8834 20.2657 44.3983 19.1596 44.0336 18.1597L38.0163 1.66316C37.6516 0.663334 36.5454 0.148459 35.5456 0.513158Z" fill="white"/>
<path d="M27.9647 24.6089L27.9762 24.6131C28.9731 24.9767 30.076 24.4633 30.4397 23.4665L37.9118 2.98142C38.2754 1.98453 37.7621 0.881623 36.7652 0.517997L36.7536 0.513785C35.7567 0.15016 34.6538 0.663518 34.2902 1.6604L26.8181 22.1454C26.4544 23.1423 26.9678 24.2452 27.9647 24.6089Z" fill="white"/>
<path d="M43.677 24.73C44.7413 24.73 45.6041 23.8673 45.6041 22.803C45.6041 21.7387 44.7413 20.876 43.677 20.876C42.6128 20.876 41.75 21.7387 41.75 22.803C41.75 23.8673 42.6128 24.73 43.677 24.73Z" fill="white"/>
<path d="M51.1233 0.398438H51.1223C50.0581 0.398438 49.1953 1.2612 49.1953 2.32546V22.8032C49.1953 23.8675 50.0581 24.7302 51.1223 24.7302H51.1233C52.1876 24.7302 53.0503 23.8675 53.0503 22.8032V2.32546C53.0503 1.2612 52.1876 0.398438 51.1233 0.398438Z" fill="white"/>
<path d="M58.7422 22.803V22.802C58.7422 21.7378 57.8794 20.875 56.8152 20.875H51.123C50.0587 20.875 49.1959 21.7378 49.1959 22.802V22.803C49.1959 23.8672 50.0587 24.73 51.123 24.73H56.8152C57.8794 24.73 58.7422 23.8672 58.7422 22.803Z" fill="white"/>
<path d="M61.013 24.73C62.0772 24.73 62.94 23.8673 62.94 22.803C62.94 21.7387 62.0772 20.876 61.013 20.876C59.9487 20.876 59.0859 21.7387 59.0859 22.803C59.0859 23.8673 59.9487 24.73 61.013 24.73Z" fill="white"/>
</g>
<defs>
<clipPath id="clip0_496_4120">
<rect width="62.3333" height="24.3337" fill="white" transform="translate(0.609375 0.398438)"/>
</clipPath>
</defs>
</svg>
