<svg width="447" height="448" viewBox="0 0 447 448" fill="none" xmlns="http://www.w3.org/2000/svg">
<circle cx="223.609" cy="223.999" r="196.32" fill="#FFF7EA"/>
<ellipse cx="223.609" cy="224" rx="223" ry="223.398" fill="#FFF7EA"/>
<ellipse cx="223.613" cy="224" rx="188.754" ry="188.355" fill="#FFF0D9"/>
<ellipse cx="223.608" cy="224" rx="156.1" ry="155.702" fill="#FFE7C1"/>
<ellipse cx="223.607" cy="223.999" rx="129.021" ry="130.216" fill="#FFDDA8"/>
<g clip-path="url(#clip0_496_4073)">
<path d="M146.898 249.562C149.681 249.562 151.937 247.311 151.937 244.534C151.937 241.758 149.681 239.507 146.898 239.507C144.115 239.507 141.859 241.758 141.859 244.534C141.859 247.311 144.115 249.562 146.898 249.562Z" fill="#F8A31F"/>
<path d="M158.218 247.914C157.278 247.914 156.346 247.66 155.533 247.169C154.311 246.431 153.441 245.21 153.147 243.819C152.586 241.172 154.188 238.523 156.796 237.787C167.454 234.785 174.009 223.958 171.717 213.139C169.425 202.32 159.043 195.062 148.078 196.619C145.398 196.999 142.857 195.222 142.298 192.576C142.004 191.182 142.303 189.714 143.121 188.547C143.94 187.38 145.223 186.594 146.64 186.394C162.967 184.087 178.427 194.897 181.839 211.005C185.251 227.114 175.492 243.239 159.627 247.719C159.165 247.85 158.692 247.914 158.218 247.914Z" fill="#F8A31F"/>
<path d="M196.932 197.398H196.929C194.147 197.398 191.891 199.649 191.891 202.426V244.534C191.891 247.311 194.147 249.562 196.929 249.562H196.932C199.715 249.562 201.97 247.311 201.97 244.534V202.426C201.97 199.649 199.715 197.398 196.932 197.398Z" fill="#F8A31F"/>
<path d="M196.929 196.14C199.712 196.14 201.968 193.889 201.968 191.112C201.968 188.336 199.712 186.085 196.929 186.085C194.147 186.085 191.891 188.336 191.891 191.112C191.891 193.889 194.147 196.14 196.929 196.14Z" fill="#F8A31F"/>
<path d="M233.213 186.381L233.21 186.382C230.596 187.333 229.25 190.219 230.203 192.827L245.937 235.865C246.891 238.474 249.783 239.817 252.397 238.865L252.4 238.864C255.014 237.913 256.36 235.027 255.407 232.419L239.673 189.381C238.719 186.773 235.827 185.429 233.213 186.381Z" fill="#F8A31F"/>
<path d="M213.399 249.244L213.429 249.255C216.035 250.204 218.919 248.864 219.87 246.264L239.408 192.821C240.359 190.22 239.016 187.342 236.41 186.394L236.379 186.383C233.773 185.434 230.889 186.773 229.938 189.374L210.4 242.817C209.45 245.418 210.792 248.295 213.399 249.244Z" fill="#F8A31F"/>
<path d="M254.461 249.562C257.243 249.562 259.499 247.311 259.499 244.534C259.499 241.758 257.243 239.507 254.461 239.507C251.678 239.507 249.422 241.758 249.422 244.534C249.422 247.311 251.678 249.562 254.461 249.562Z" fill="#F8A31F"/>
<path d="M273.947 186.083H273.945C271.162 186.083 268.906 188.334 268.906 191.11V244.534C268.906 247.311 271.162 249.562 273.945 249.562H273.947C276.73 249.562 278.986 247.311 278.986 244.534V191.11C278.986 188.334 276.73 186.083 273.947 186.083Z" fill="#F8A31F"/>
<path d="M293.867 244.534V244.531C293.867 241.755 291.611 239.504 288.828 239.504H273.945C271.162 239.504 268.906 241.755 268.906 244.531V244.534C268.906 247.31 271.162 249.561 273.945 249.561H288.828C291.611 249.561 293.867 247.31 293.867 244.534Z" fill="#F8A31F"/>
<path d="M299.804 249.562C302.587 249.562 304.843 247.311 304.843 244.534C304.843 241.758 302.587 239.507 299.804 239.507C297.022 239.507 294.766 241.758 294.766 244.534C294.766 247.311 297.022 249.562 299.804 249.562Z" fill="#F8A31F"/>
</g>
<defs>
<clipPath id="clip0_496_4073">
<rect width="162.986" height="63.4836" fill="white" transform="translate(141.859 186.083)"/>
</clipPath>
</defs>
</svg>
