<?xml version="1.0" encoding="UTF-8" standalone="no"?>
<svg
   width="665.91302"
   height="354.63699"
   viewBox="0 0 665.91302 354.63699"
   fill="none"
   version="1.1"
   id="svg55"
   sodipodi:docname="favicon.svg"
   inkscape:version="1.2.2 (b0a8486, 2022-12-01)"
   xmlns:inkscape="http://www.inkscape.org/namespaces/inkscape"
   xmlns:sodipodi="http://sodipodi.sourceforge.net/DTD/sodipodi-0.dtd"
   xmlns="http://www.w3.org/2000/svg"
   xmlns:svg="http://www.w3.org/2000/svg">
  <defs
     id="defs59" />
  <path
     d="m 155.909,317.833 h 0.66 l -1.1,1.54 z"
     fill="#fffcf5"
     id="path51" />
  <path
     fill-rule="evenodd"
     clip-rule="evenodd"
     d="M 473.394,0 348.412,32.856 284.826,119.815 H 194.049 L 0,12.266 249.962,28.694 260.268,0 Z M 284.825,119.821 140.33,317.834 h -0.658 l 67.314,-190.785 -12.937,-7.228 z m 141.714,3.035 -8.611,-27.78 c -4.386,-14.019 -0.658,-29.351 9.866,-39.865 l 86.419,70.786 99.953,35.661 c 12.498,3.066 21.05,14.237 21.05,27.161 v 37.237 c 17.541,3.285 30.697,18.399 30.697,36.579 v 55.199 h -65.78 v -1.096 l -87.268,0.439 c 3.289,-9.638 5.044,-20.371 5.044,-31.104 0,-53.665 -43.415,-97.035 -97.135,-97.035 -53.72,0 -97.135,43.37 -97.135,97.035 0,11.171 1.974,21.904 5.482,31.761 H 183.529 L 328.025,119.821 Z m -5.774,231.781 c 37.903,0 68.629,-30.695 68.629,-68.559 0,-37.865 -30.726,-68.56 -68.629,-68.56 -37.903,0 -68.63,30.695 -68.63,68.56 0,37.864 30.727,68.559 68.63,68.559 z"
     fill="#fffcf5"
     id="path53" />
</svg>
